<?xml version="1.0" encoding="UTF-8"?>
<svg viewBox="0 0 100 100" xmlns="http://www.w3.org/2000/svg">
  <title>golang-openstack-exporter</title>
  <path
     style="fill:#b8b8b8"
     d="M 50.000441,0 C 22.387125,0 0,22.384873 0,49.999559 0,77.613363 22.387125,100 50.000441,100 77.613758,100 100,77.613363 100,49.999559 100,22.384873 77.612875,0 50.000441,0 Z" />
  <path
     style="fill:#ffffff"
     d="m 32.808192,6.2355133 c -2.296051,0.1346202 -4.591472,4.0701907 -4.591472,7.4584627 0,3.272513 -0.910249,8.609632 -3.084613,11.532262 -0.147765,-6.311553 -2.335127,-10.348168 -4.380445,-10.510102 2.101483,5.21768 -3.724286,11.672753 -3.724286,19.059968 0,3.364861 1.349108,6.657586 3.620421,9.247243 -2.365588,-0.41947 -3.983123,-0.783106 -3.983123,-0.783106 -3.144534,-0.688061 -7.5796702,-1.644947 -7.5656245,-1.569509 0.8337723,2.2905 1.6929735,4.538071 5.3383075,8.843324 0.113666,0.133969 0.233483,0.263655 0.35116,0.395675 h 35.38319 c 4.536608,-4.54783 5.718166,-9.270974 5.717496,-9.270323 l -8.124517,1.541481 c 1e-6,0 -1.728431,0.412297 -4.230419,0.868835 2.20044,-2.529173 3.505017,-5.764682 3.505017,-9.20108 -1e-6,-5.125332 -1.283623,-7.835039 -3.401151,-11.41191 C 42.325624,20.219723 40.406957,15.608812 42.078514,11.923333 38.289427,14.849865 37.261887,23.325682 37.041909,29.135172 36.378635,26.338059 36.488201,21.926831 35.629022,19.30596 33.338318,12.328458 30.761536,9.5164809 32.808192,6.2355133 Z M 14.687951,53.14272 v 6.281331 h 35.61235 V 53.14272 Z m 7.026518,9.141729 c 0,4.770247 4.827061,8.638893 10.780481,8.638893 5.953421,0 10.780481,-3.869297 10.780481,-8.638893 z" />
  <g fill="#ed1944">
    <path
       d="M 82.163405,53.027255 H 54.98941 a 3.1105167,3.1105167 0 0 0 -3.101458,3.101458 v 7.309805 h 7.538066 v -1.193844 a 1.6775413,1.6775413 0 0 1 1.677542,-1.677541 h 14.951135 a 1.6775413,1.6775413 0 0 1 1.677537,1.677541 v 1.193844 h 7.543506 v -7.309805 a 3.1123283,3.1123283 0 0 0 -3.112333,-3.101458 z" />
    <path
     d="m 77.726795,76.483848 a 1.6793529,1.6793529 0 0 1 -1.677536,1.677541 H 61.098123 a 1.6793529,1.6793529 0 0 1 -1.67754,-1.677541 v -1.193845 h -7.538066 v 7.307994 a 3.1105167,3.1105167 0 0 0 3.101459,3.10327 h 27.173992 a 3.1123283,3.1123283 0 0 0 3.11777,-3.10327 v -7.307994 h -7.548943 z" />
    <rect
       x="51.882519"
       y="65.594322"
       height="7.5398779"
       width="7.5398779" />
    <rect
       x="77.726799"
       y="65.594322"
       height="7.5398779"
       width="7.5398779" />
  </g>
</svg>
